<?xml version="1.0" encoding="utf-8"?>
<!-- Generator: Adobe Illustrator 16.0.0, SVG Export Plug-In . SVG Version: 6.00 Build 0)  -->
<!DOCTYPE svg PUBLIC "-//W3C//DTD SVG 1.1//EN" "http://www.w3.org/Graphics/SVG/1.1/DTD/svg11.dtd">
<svg version="1.1" id="Layer_1" xmlns="http://www.w3.org/2000/svg" xmlns:xlink="http://www.w3.org/1999/xlink" x="0px" y="0px"
	 width="339px" height="300px" viewBox="0 0 339 300" enable-background="new 0 0 339 300" xml:space="preserve">
<g>
	<g>
		<path fill="#FFFFFF" d="M31.553,253.672h-13.37v27.65c0,1.757,0.167,3.21,0.505,4.357s0.827,2.043,1.469,2.683
			c0.64,0.643,1.4,1.079,2.279,1.315c0.876,0.238,1.823,0.356,2.836,0.356c0.944,0,1.938-0.137,2.987-0.406
			c1.046-0.269,2.04-0.643,2.987-1.114l0.305,5.975c-1.217,0.473-2.482,0.829-3.798,1.065c-1.318,0.236-2.754,0.354-4.305,0.354
			c-1.285,0-2.633-0.171-4.053-0.509c-1.417-0.335-2.735-0.978-3.949-1.922c-1.216-0.944-2.213-2.229-2.987-3.85
			c-0.777-1.62-1.164-3.748-1.164-6.381v-29.575H1.473v-5.774h9.825V234.53h6.886v13.367h13.37V253.672z"/>
		<path fill="#FFFFFF" d="M69.835,295.301c-0.134-1.285-0.236-2.702-0.305-4.256c-0.066-1.552-0.099-2.834-0.099-3.85h-0.203
			c-1.351,2.771-3.545,5.014-6.584,6.738c-3.037,1.719-6.247,2.581-9.622,2.581c-6.01,0-10.517-1.787-13.521-5.368
			c-3.006-3.578-4.508-8.306-4.508-14.18v-29.069h6.886v26.233c0,2.499,0.203,4.761,0.61,6.787c0.403,2.027,1.095,3.765,2.076,5.218
			c0.978,1.449,2.295,2.581,3.951,3.391c1.653,0.811,3.729,1.217,6.228,1.217c1.823,0,3.597-0.371,5.319-1.115
			c1.722-0.741,3.256-1.872,4.607-3.394c1.351-1.519,2.43-3.443,3.24-5.771c0.81-2.329,1.217-5.08,1.217-8.254v-24.312h6.886v36.97
			c0,1.285,0.033,2.938,0.102,4.964c0.066,2.026,0.167,3.85,0.305,5.47H69.835z"/>
		<path fill="#FFFFFF" d="M87.257,253.367c-0.069-2.024-0.17-3.848-0.305-5.47h6.584c0.134,1.285,0.236,2.702,0.302,4.256
			c0.069,1.554,0.102,2.834,0.102,3.85h0.204c1.351-2.768,3.377-5.014,6.076-6.738c2.702-1.719,5.739-2.581,9.116-2.581
			c0.876,0,1.672,0.033,2.381,0.102c0.708,0.068,1.433,0.2,2.177,0.403l-0.912,6.585c-0.406-0.135-1.082-0.27-2.026-0.406
			c-0.945-0.132-1.889-0.201-2.836-0.201c-1.82,0-3.578,0.338-5.267,1.011c-1.688,0.673-3.155,1.735-4.404,3.183
			c-1.249,1.45-2.263,3.301-3.04,5.558s-1.164,4.97-1.164,8.133v24.251h-6.887v-36.97C87.359,257.049,87.323,255.394,87.257,253.367
			z"/>
		<path fill="#FFFFFF" d="M123.109,247.897c0.135,1.285,0.236,2.702,0.302,4.256c0.068,1.554,0.102,2.834,0.102,3.85h0.203
			c1.351-2.768,3.545-5.014,6.584-6.738c3.037-1.719,6.244-2.581,9.621-2.581c6.008,0,10.517,1.79,13.521,5.368
			s4.509,8.306,4.509,14.18v29.069h-6.889v-26.233c0-2.499-0.201-4.761-0.607-6.787c-0.404-2.024-1.099-3.763-2.076-5.215
			c-0.98-1.452-2.296-2.584-3.952-3.394c-1.653-0.811-3.731-1.217-6.228-1.217c-1.823,0-3.597,0.374-5.318,1.115
			c-1.722,0.744-3.256,1.872-4.607,3.394s-2.43,3.443-3.24,5.771c-0.81,2.331-1.216,5.083-1.216,8.257v24.309h-6.887v-36.97
			c0-1.282-0.036-2.938-0.102-4.964c-0.068-2.024-0.17-3.848-0.305-5.47H123.109z"/>
		<path fill="#FFFFFF" d="M172.534,260.965c0.673-2.161,1.636-4.083,2.886-5.774c1.25-1.687,2.683-3.119,4.306-4.303
			c1.62-1.181,3.375-2.079,5.266-2.683c1.889-0.609,3.847-0.912,5.874-0.912c3.24,0,5.942,0.571,8.103,1.719
			c2.161,1.15,3.882,2.669,5.165,4.559c1.282,1.892,2.194,4.02,2.735,6.381c0.541,2.364,0.81,4.762,0.81,7.191v28.158h-2.227
			v-27.955c0-1.892-0.203-3.915-0.609-6.076c-0.404-2.161-1.164-4.119-2.279-5.876c-1.112-1.755-2.617-3.224-4.506-4.404
			c-1.892-1.181-4.289-1.774-7.191-1.774c-2.567,0-4.981,0.524-7.241,1.571c-2.263,1.049-4.22,2.548-5.876,4.509
			c-1.656,1.957-2.971,4.338-3.949,7.139c-0.98,2.801-1.469,5.991-1.469,9.572v23.295h-2.23v-76.569h2.23v42.233H172.534z"/>
		<path fill="#FFFFFF" d="M219.021,271.497c0,2.837,0.423,5.638,1.269,8.408c0.843,2.771,2.125,5.25,3.847,7.443
			c1.722,2.197,3.899,3.968,6.532,5.316c2.633,1.351,5.739,2.026,9.319,2.026c3.646,0,6.886-0.725,9.723-2.178
			c2.836-1.452,5.299-3.561,7.395-6.329l1.62,1.417c-2.296,2.971-4.981,5.233-8.054,6.788c-3.073,1.551-6.634,2.328-10.684,2.328
			c-3.443,0-6.584-0.626-9.421-1.873c-2.833-1.249-5.283-2.987-7.342-5.217c-2.06-2.229-3.646-4.896-4.759-8.001
			c-1.115-3.105-1.672-6.483-1.672-10.13c0-3.509,0.574-6.752,1.724-9.723c1.151-2.971,2.724-5.535,4.72-7.696
			c1.999-2.161,4.35-3.83,7.057-5.014c2.708-1.181,5.618-1.771,8.729-1.771c3.655,0,6.837,0.643,9.544,1.922
			c2.705,1.285,4.956,2.972,6.752,5.063c1.793,2.096,3.13,4.476,4.009,7.142c0.879,2.669,1.321,5.385,1.321,8.152v1.925H219.021z
			 M258.42,269.572c-0.068-3.036-0.59-5.805-1.57-8.303c-0.978-2.499-2.312-4.641-4-6.431c-1.687-1.79-3.713-3.175-6.077-4.154
			c-2.364-0.978-4.997-1.47-7.899-1.47c-3.512,0-6.516,0.729-9.015,2.181c-2.499,1.45-4.542,3.24-6.126,5.365
			c-1.587,2.128-2.754,4.354-3.495,6.687c-0.744,2.328-1.115,4.371-1.115,6.125H258.42z"/>
		<path fill="#FFFFFF" d="M279.385,250.483c2.971-2.13,6.178-3.19,9.621-3.19c0.338,0,0.643,0,0.912,0
			c0.269,0,0.573,0.033,0.911,0.099v1.925c-0.269-0.065-0.521-0.102-0.758-0.102c-0.239,0-0.423,0-0.558,0
			c-2.974,0-5.505,0.659-7.598,1.978c-2.092,1.315-3.813,3.037-5.165,5.162c-1.351,2.131-2.348,4.492-2.987,7.093
			c-0.643,2.6-0.961,5.181-0.961,7.745v24.108h-2.229v-34.844c0-0.742-0.017-1.653-0.05-2.735c-0.035-1.076-0.068-2.175-0.102-3.289
			c-0.035-1.115-0.085-2.178-0.153-3.191c-0.065-1.013-0.135-1.855-0.2-2.531h2.227c0.066,0.676,0.118,1.519,0.151,2.531
			c0.035,1.014,0.068,2.112,0.102,3.293c0.032,1.184,0.068,2.328,0.102,3.443c0.032,1.111,0.052,2.111,0.052,2.987h0.2
			C274.253,256.102,276.414,252.609,279.385,250.483z"/>
		<path fill="#FFFFFF" d="M291.843,271.497c0,2.837,0.423,5.638,1.269,8.408c0.843,2.771,2.125,5.25,3.847,7.443
			c1.722,2.197,3.899,3.968,6.532,5.316c2.633,1.351,5.738,2.026,9.319,2.026c3.646,0,6.887-0.725,9.723-2.178
			c2.837-1.452,5.3-3.561,7.395-6.329l1.62,1.417c-2.296,2.971-4.98,5.233-8.054,6.788c-3.072,1.551-6.634,2.328-10.684,2.328
			c-3.443,0-6.585-0.626-9.421-1.873c-2.834-1.249-5.283-2.987-7.343-5.217c-2.059-2.229-3.646-4.896-4.758-8.001
			c-1.115-3.105-1.673-6.483-1.673-10.13c0-3.509,0.574-6.752,1.725-9.723s2.724-5.535,4.72-7.696
			c1.999-2.161,4.35-3.83,7.058-5.014c2.707-1.181,5.617-1.771,8.729-1.771c3.654,0,6.837,0.643,9.545,1.922
			c2.704,1.285,4.956,2.972,6.752,5.063c1.793,2.096,3.13,4.476,4.009,7.142c0.878,2.669,1.32,5.385,1.32,8.152v1.925H291.843z
			 M331.242,269.572c-0.068-3.036-0.591-5.805-1.57-8.303c-0.978-2.499-2.312-4.641-4.001-6.431
			c-1.686-1.79-3.712-3.175-6.076-4.154c-2.364-0.978-4.998-1.47-7.9-1.47c-3.512,0-6.516,0.729-9.015,2.181
			c-2.498,1.45-4.541,3.24-6.125,5.365c-1.588,2.128-2.755,4.354-3.496,6.687c-0.744,2.328-1.114,4.371-1.114,6.125H331.242z"/>
	</g>
	<g>
		<path fill="#FFFFFF" d="M113.915,155.009L86.76,132.52l26.943-53.291L113.915,155.009z M89.402,131.97l22.391,18.544
			l-0.173-62.488L89.402,131.97z"/>
	</g>
	<g>
		<path fill="#FFFFFF" d="M88.836,133.732l-67.669-29.905L106.979,50.7L88.836,133.732z M25.678,103.514l61.648,27.244
			l16.531-75.646L25.678,103.514z"/>
	</g>
	<g>
		<path fill="#FFFFFF" d="M13.472,169.256l9.094-67.116l68.033,30.065L13.472,169.256z M24.279,105.202l-8.193,60.458l69.477-33.375
			L24.279,105.202z"/>
	</g>
	<g>
		<path fill="#FFFFFF" d="M303.798,141.961l-65.826-2.264l86.356-54.209L303.798,141.961z M244.919,137.827l57.417,1.973
			l17.911-49.26L244.919,137.827z"/>
	</g>
	<g>
		<path fill="#FFFFFF" d="M112.173,187.712l-0.582-107.235l52.398,68.909L112.173,187.712z M113.732,86.778l0.527,96.766
			l46.758-34.584L113.732,86.778z"/>
	</g>
	<g>
		<path fill="#FFFFFF" d="M172.736,221.441l-30.866-29.273l21.21-46.824L172.736,221.441z M144.41,191.669l25.489,24.177
			l-7.972-62.844L144.41,191.669z"/>
	</g>
	<g>
		<path fill="#FFFFFF" d="M170.562,221.065l-9.237-72.796l85.021-11.66L170.562,221.065z M163.682,150.076l8.391,66.146
			l68.865-76.743L163.682,150.076z"/>
	</g>
	<g>
		<path fill="#FFFFFF" d="M111.986,85.357l-7.874-33.397l65.626-5.668L111.986,85.357z M106.724,53.852l6.613,28.046l48.5-32.807
			L106.724,53.852z"/>
	</g>
	<g>
		<path fill="#FFFFFF" d="M159.847,150.602l55.5-63.258l29.998,51.53L159.847,150.602z M215.001,90.938l-49.841,56.805l76.78-10.53
			L215.001,90.938z"/>
	</g>
	<g>
		<polygon fill="none" points="322.65,88.146 215.174,89.141 243.643,138.044 		"/>
	</g>
	<g>
		<path fill="#FFFFFF" d="M163.462,152.174l-52.314-68.795l55.76-37.719L163.462,152.174z M114.176,83.876l47.37,62.296
			l3.122-96.451L114.176,83.876z"/>
	</g>
	<g>
		<path fill="#FFFFFF" d="M161.354,152.081l3.45-106.593l51.874,43.538L161.354,152.081z M166.771,49.893l-3.118,96.373
			l50.016-57.009L166.771,49.893z"/>
	</g>
	<g>
		<path fill="#FFFFFF" d="M103.429,53.942l18.666-51.344l45.616,45.797L103.429,53.942z M122.943,6.438L106.54,51.557l56.489-4.874
			L122.943,6.438z"/>
	</g>
	<g>
		<path fill="#FFFFFF" d="M215.061,90.423l-52.333-43.925l119.06,5.298L215.061,90.423z M168.848,48.882l46.439,38.977
			l59.208-34.274L168.848,48.882z"/>
	</g>
	<g>
		<circle fill="#FFFFFF" cx="105.419" cy="53.957" r="3.046"/>
	</g>
	<g>
		<circle fill="#FFFFFF" cx="165.788" cy="47.69" r="2.855"/>
	</g>
	<g>
		<circle fill="#FFFFFF" cx="278.139" cy="52.689" r="3.046"/>
	</g>
	<g>
		<circle fill="#FFFFFF" cx="322.287" cy="88.013" r="3.046"/>
	</g>
	<g>
		<circle fill="#FFFFFF" cx="243.641" cy="138.611" r="3.046"/>
	</g>
	<g>
		<path fill="#FFFFFF" d="M305.374,139.892c0,1.683-1.365,3.048-3.045,3.048c-1.684,0-3.048-1.365-3.048-3.048
			c0-1.682,1.364-3.046,3.048-3.046C304.009,136.846,305.374,138.21,305.374,139.892z"/>
	</g>
	<g>
		<circle fill="#FFFFFF" cx="215.172" cy="89.141" r="3.046"/>
	</g>
	<g>
		<circle fill="#FFFFFF" cx="162.741" cy="149.173" r="3.046"/>
	</g>
	<g>
		<circle fill="#FFFFFF" cx="143.142" cy="191.698" r="3.046"/>
	</g>
	<g>
		<circle fill="#FFFFFF" cx="112.855" cy="185.605" r="3.047"/>
	</g>
	<g>
		<circle fill="#FFFFFF" cx="112.66" cy="152.221" r="3.046"/>
	</g>
	<g>
		<circle fill="#FFFFFF" cx="88.083" cy="132.245" r="3.046"/>
	</g>
	<g>
		<circle fill="#FFFFFF" cx="112.66" cy="83.626" r="3.046"/>
	</g>
	<g>
		<circle fill="#FFFFFF" cx="23.424" cy="104.48" r="3.047"/>
	</g>
	<g>
		<circle fill="#FFFFFF" cx="14.778" cy="167.457" r="3.047"/>
	</g>
	<g>
		
			<rect x="206.425" y="124.196" transform="matrix(0.745 0.6671 -0.6671 0.745 171.8936 -92.9267)" fill="#FFFFFF" width="2.108" height="108.294"/>
	</g>
	<g>
		<circle fill="#FFFFFF" cx="171.316" cy="218.644" r="3.046"/>
	</g>
</g>
</svg>
